<?xml version="1.0" encoding="UTF-8"?><svg id="Layer_1" xmlns="http://www.w3.org/2000/svg" xmlns:xlink="http://www.w3.org/1999/xlink" viewBox="0 0 180 180"><defs><style>.cls-1{fill:none;}.cls-2{clip-path:url(#clippath);}.cls-3{fill:url(#linear-gradient);}.cls-3,.cls-4,.cls-5,.cls-6,.cls-7,.cls-8,.cls-9,.cls-10{fill-rule:evenodd;}.cls-4{fill:url(#linear-gradient-8);}.cls-5{fill:url(#linear-gradient-3);}.cls-6{fill:url(#linear-gradient-2);}.cls-7{fill:url(#linear-gradient-4);}.cls-8{fill:url(#linear-gradient-6);}.cls-9{fill:url(#linear-gradient-7);}.cls-10{fill:url(#linear-gradient-5);}</style><clipPath id="clippath"><rect class="cls-1" x="35.32" y="20.48" width="109.35" height="139.03" transform="translate(-7.5 171.81) rotate(-85)"/></clipPath><linearGradient id="linear-gradient" x1="130.54" y1="-241.49" x2="11.16" y2="-251.6" gradientTransform="translate(0 -163.09) scale(1 -1)" gradientUnits="userSpaceOnUse"><stop offset=".16" stop-color="#af64ee"/><stop offset="1" stop-color="#02fe57"/></linearGradient><linearGradient id="linear-gradient-2" x1="158.33" y1="-222.45" x2="58.91" y2="-229.61" xlink:href="#linear-gradient"/><linearGradient id="linear-gradient-3" x1="144.39" y1="-232.56" x2="34.83" y2="-240.57" xlink:href="#linear-gradient"/><linearGradient id="linear-gradient-4" x1="111.33" y1="-265.03" x2="25.48" y2="-261.04" gradientTransform="translate(0 -163.09) scale(1 -1)" gradientUnits="userSpaceOnUse"><stop offset=".1" stop-color="#af64ee"/><stop offset="1" stop-color="#02fe57"/></linearGradient><linearGradient id="linear-gradient-5" x1="90.61" y1="-272.13" x2="37.1" y2="-271.71" gradientTransform="translate(0 -163.09) scale(1 -1)" gradientUnits="userSpaceOnUse"><stop offset=".14" stop-color="#af64ee"/><stop offset="1" stop-color="#02fe57"/></linearGradient><linearGradient id="linear-gradient-6" x1="81.28" y1="-281.15" x2="27.63" y2="-280.75" xlink:href="#linear-gradient-5"/><linearGradient id="linear-gradient-7" x1="71.86" y1="-290.12" x2="18.45" y2="-289.69" xlink:href="#linear-gradient-5"/><linearGradient id="linear-gradient-8" x1="72.27" y1="-296.71" x2="9.26" y2="-297.58" gradientTransform="translate(0 -163.09) scale(1 -1)" gradientUnits="userSpaceOnUse"><stop offset=".14" stop-color="#af64ee"/><stop offset=".94" stop-color="#02fe57"/></linearGradient></defs><g class="cls-2"><g><path class="cls-3" d="M22.84,59.99l46.71,26.93c21.79,12.26,43.98,24.75,47.83,26.89,.15,.08,.33,.17,.48,.25,7.78,3.81,15.13-5.65,15.13-5.65l.08-.11L32.28,50.87l-9.44,9.12Z"/><path class="cls-6" d="M78.25,34.09l-9.38,8.97,81.87,47.88,9.79-9.43L78.25,34.09Z"/><path class="cls-5" d="M55.33,41.78l-9.49,9.14,91.05,53.31,9.86-9.43L55.33,41.78Z"/><path class="cls-7" d="M66.1,92.04l-5.12,4.93,20.22,11.37,5.14-4.92-20.25-11.37Z"/><path class="cls-10" d="M77.73,111.89l-5.44,5.24-20.17-11.41,5.37-5.18,20.25,11.35Z"/><path class="cls-8" d="M62.92,126.15l5.44-5.22-20.25-11.35-5.44,5.22,20.25,11.35Z"/><path class="cls-9" d="M59,129.9l-5.44,5.22-20.12-11.48,5.32-5.11,20.25,11.37Z"/><path class="cls-4" d="M49.62,138.88c-1.75,1.17-7.99,3.78-16.12-.77l-9.45-5.45,5.34-5.13,20.25,11.35h-.02Z"/></g></g></svg>